<svg width="34" height="34" viewBox="0 0 34 34" fill="none" xmlns="http://www.w3.org/2000/svg">
<rect width="34" height="34" rx="6" fill="#F2F2F7"/>
<path fill-rule="evenodd" clip-rule="evenodd" d="M9 11C9 9.89543 9.89543 9 11 9H17.1053C18.2098 9 19.1053 9.89543 19.1053 11V12.3684H16.0526C14.9481 12.3684 14.0526 13.2639 14.0526 14.3684V20.7895H11C9.89543 20.7895 9 19.894 9 18.7895V11ZM16.8947 13.2105C15.7902 13.2105 14.8947 14.106 14.8947 15.2105V23C14.8947 24.1046 15.7902 25 16.8947 25H23C24.1046 25 25 24.1046 25 23V15.2105C25 14.106 24.1046 13.2105 23 13.2105H16.8947Z" fill="#0085CA"/>
</svg>
